<?xml version="1.0" standalone="no"?>
<!DOCTYPE svg PUBLIC "-//W3C//DTD SVG 20010904//EN"
 "http://www.w3.org/TR/2001/REC-SVG-20010904/DTD/svg10.dtd">
<svg version="1.0" xmlns="http://www.w3.org/2000/svg"
 width="513.000000pt" height="513.000000pt" viewBox="0 0 513.000000 513.000000"
 preserveAspectRatio="xMidYMid meet">
<metadata>
Created by potrace 1.14, written by Peter Selinger 2001-2017
</metadata>
<g transform="translate(0.000000,513.000000) scale(0.100000,-0.100000)"
fill="#000000" stroke="none">
<path d="M2899 4365 c-3 -2 -40 -6 -84 -9 -44 -3 -80 -6 -80 -7 0 -1 -13 -3
-30 -5 -63 -7 -103 -13 -180 -29 -44 -10 -90 -19 -103 -21 -72 -14 -284 -93
-397 -148 -182 -89 -245 -152 -289 -288 -17 -51 -110 -346 -138 -438 -21 -68
-50 -158 -193 -605 -136 -427 -259 -764 -440 -1210 -70 -172 -88 -217 -116
-280 -14 -32 -49 -125 -49 -130 0 -3 20 7 45 21 25 13 45 20 45 15 0 -5 -9
-30 -20 -56 -11 -26 -20 -51 -20 -57 0 -5 37 10 83 35 77 42 280 148 512 266
204 105 463 215 625 266 198 63 322 85 560 101 52 3 98 8 103 11 4 2 12 1 19
-3 7 -4 24 -9 37 -10 20 -2 22 -1 11 6 -11 7 -8 10 15 10 23 0 27 -3 15 -10
-8 -5 -10 -10 -4 -10 6 0 14 3 18 7 4 4 18 8 32 9 24 1 25 0 19 -49 -4 -28 -8
-59 -11 -70 -2 -11 -8 -57 -14 -101 -6 -45 -15 -94 -20 -111 -6 -16 -11 -42
-12 -58 -1 -15 -6 -27 -10 -27 -4 0 -8 -5 -8 -11 0 -5 4 -7 10 -4 7 4 7 -3 0
-19 -7 -19 -6 -26 3 -26 9 0 9 -2 -1 -9 -9 -5 -11 -21 -7 -54 4 -25 7 -76 9
-114 1 -38 4 -73 7 -78 3 -6 6 -25 7 -43 2 -19 10 -50 19 -70 18 -41 20 -47
22 -64 3 -25 18 -39 35 -32 12 5 16 14 13 30 -2 13 0 21 4 18 5 -3 9 -21 9
-41 0 -30 2 -34 15 -23 12 10 15 10 15 -3 0 -8 6 -20 14 -27 8 -6 16 -24 18
-38 4 -35 41 -38 46 -4 2 12 7 20 12 17 5 -3 7 4 5 15 -2 12 4 29 15 40 11 11
22 31 26 45 3 14 11 22 17 18 6 -4 8 0 4 11 -4 9 -1 26 6 37 8 14 9 22 1 27
-19 12 -24 52 -7 52 12 0 13 3 4 13 -8 10 -7 17 2 27 9 10 9 11 0 6 -7 -4 -13
-2 -13 3 0 6 6 11 13 11 9 0 8 3 -2 9 -11 7 -11 9 0 14 9 3 9 6 2 6 -8 1 -9
10 -3 32 5 18 7 36 4 40 -3 5 -1 9 4 9 5 0 6 14 4 31 -3 19 -1 29 5 26 6 -4
15 23 22 63 7 39 16 72 21 75 7 4 11 20 25 105 3 19 10 39 16 44 5 6 9 19 10
30 0 12 10 50 22 86 17 48 27 65 40 64 13 -1 17 7 18 40 4 102 12 153 29 170
5 5 10 24 10 41 0 17 5 36 12 43 9 9 9 12 0 12 -10 0 -10 3 0 14 7 8 18 11 23
8 6 -2 5 1 -2 8 -8 8 -9 20 -3 36 5 13 7 24 5 24 -3 0 1 10 9 23 8 12 17 33
20 47 11 57 15 70 25 89 6 11 11 28 10 38 0 12 -4 10 -10 -9 -6 -14 -17 -29
-24 -32 -11 -4 -12 -1 -5 12 8 16 39 109 44 135 2 7 7 30 13 52 6 22 13 70 16
107 4 61 3 68 -15 74 -17 5 -19 12 -14 44 7 44 7 44 -84 56 -30 4 -64 9 -75
11 -63 11 -174 16 -225 10 -14 -1 -44 0 -68 4 -23 3 -66 2 -95 -3 -29 -5 -92
-10 -142 -13 -186 -9 -323 -24 -478 -53 -50 -9 -48 -27 3 -23 22 1 40 -2 40
-7 0 -6 8 -9 18 -7 44 9 133 12 126 5 -5 -5 -54 -12 -109 -16 -112 -7 -154
-24 -60 -24 32 0 55 -4 50 -8 -15 -12 -145 -43 -155 -37 -5 3 -11 1 -14 -3 -3
-5 -31 -10 -63 -11 -32 -1 -65 -3 -73 -5 -8 -1 -33 -6 -55 -10 -73 -13 -125
-28 -125 -37 0 -9 51 -14 130 -11 113 3 349 12 392 15 25 2 66 0 90 -3 l43 -7
-50 -2 c-86 -4 -219 -16 -255 -24 -14 -4 -55 -9 -91 -11 -37 -3 -73 -8 -81
-11 -8 -3 -32 -7 -54 -9 -22 -1 -50 -9 -64 -16 -23 -12 -24 -14 -5 -20 11 -4
72 -6 135 -3 113 4 127 4 153 2 13 -1 175 9 240 15 20 2 37 1 37 -3 0 -12 65
-7 73 7 4 6 13 12 20 12 7 0 6 -4 -3 -10 -22 -14 -6 -22 45 -24 25 0 45 -4 45
-9 0 -4 3 -6 8 -3 4 2 51 6 105 8 69 2 100 -1 105 -9 4 -7 19 -11 32 -9 66 11
130 15 130 10 0 -21 -83 -240 -93 -246 -7 -4 -21 -5 -31 -2 -27 9 -309 11
-368 4 -26 -4 -48 -3 -48 1 0 4 -10 5 -22 1 -14 -3 -19 -1 -14 6 5 8 2 10 -8
6 -9 -3 -13 -11 -9 -18 4 -7 1 -7 -9 1 -8 7 -17 10 -21 7 -3 -3 -18 -7 -34 -9
-67 -6 -168 -27 -180 -37 -10 -8 -13 -7 -13 3 0 10 -3 10 -12 1 -7 -7 -22 -12
-35 -12 -12 0 -48 -7 -80 -16 -32 -8 -66 -17 -76 -19 -17 -4 -147 -43 -177
-53 -8 -3 -19 -6 -25 -8 -5 -1 -29 -9 -52 -17 -22 -9 -44 -13 -47 -10 -3 4 -6
2 -6 -3 0 -5 -14 -11 -32 -12 -18 -2 -35 -6 -38 -10 -3 -4 -14 -14 -24 -22
-18 -13 -19 -13 -11 0 7 12 6 13 -6 3 -26 -21 -69 -34 -66 -20 1 6 8 17 16 23
8 6 12 20 8 33 -3 11 -2 19 1 17 4 -2 20 30 35 72 16 43 35 89 43 105 9 15 12
27 9 27 -3 0 0 10 7 23 6 12 13 29 14 37 1 8 9 35 18 59 9 24 14 47 11 51 -3
5 -2 16 1 25 5 13 8 14 15 3 6 -9 9 -9 9 -1 0 6 5 24 12 40 6 15 13 36 15 46
1 10 10 29 19 42 9 13 13 29 9 35 -3 5 -2 10 3 10 5 0 19 33 31 73 12 39 27
83 33 97 17 37 20 62 7 54 -8 -4 -8 0 0 15 7 11 9 21 5 21 -4 0 3 9 16 20 13
11 18 20 11 20 -8 0 -7 6 4 16 11 11 14 26 10 43 -4 17 -3 21 3 12 6 -8 12 -9
16 -3 3 6 1 14 -4 17 -8 5 -6 13 5 25 9 10 14 23 11 29 -4 5 -2 12 4 16 5 3
10 11 10 16 0 6 -4 8 -8 5 -14 -8 13 83 29 102 9 10 14 23 11 30 -2 7 1 12 7
12 6 0 11 16 11 36 0 19 4 33 9 30 5 -3 9 4 10 17 4 63 6 85 11 82 3 -2 11 3
18 11 10 11 10 14 0 14 -9 0 -9 3 2 10 8 5 11 10 6 10 -5 0 -3 7 4 15 6 8 9
19 5 25 -4 6 0 19 9 29 9 10 16 22 15 27 -1 5 -1 18 0 29 1 17 3 18 12 5 9
-12 10 -11 6 7 -3 13 -1 26 4 29 5 3 9 11 9 19 0 20 43 84 57 85 7 0 16 8 22
18 5 9 12 16 15 14 14 -8 65 10 70 24 3 9 10 12 16 9 5 -3 10 -2 10 3 0 5 20
15 44 22 25 7 47 18 50 26 3 8 11 14 18 14 9 0 9 -3 -2 -11 -12 -9 -12 -10 3
-5 10 3 23 6 28 6 6 0 7 5 3 12 -4 7 -3 8 5 4 6 -4 19 -2 28 6 14 11 16 11 8
-2 -7 -13 -6 -13 7 -2 12 9 18 10 23 2 5 -8 11 -7 22 2 9 7 17 11 19 8 1 -3 6
-1 11 4 5 5 2 6 -6 1 -9 -5 -12 -4 -8 2 4 6 18 8 32 5 14 -2 31 0 38 6 12 10
24 13 105 27 73 12 90 14 135 19 27 3 52 8 57 11 5 3 11 1 15 -5 3 -6 27 -8
53 -5 81 8 376 10 389 2 6 -4 13 -3 15 1 1 5 14 6 26 3 l24 -6 -21 -26 c-11
-15 -18 -29 -15 -31 2 -3 -11 -27 -31 -54 -19 -27 -42 -65 -51 -84 -9 -19 -24
-44 -34 -55 -9 -11 -30 -42 -45 -69 -27 -45 -27 -48 -7 -37 12 6 22 15 22 20
0 14 37 51 44 44 3 -3 6 1 6 10 0 17 50 81 57 73 3 -3 -4 -20 -15 -38 -13 -20
-19 -43 -16 -55 6 -21 -28 -68 -40 -55 -3 3 -6 -3 -6 -13 0 -10 -12 -38 -26
-62 l-26 -45 26 17 c14 10 26 23 26 30 0 17 35 47 45 38 4 -5 6 -1 2 8 -3 11
7 29 28 50 18 19 31 37 29 40 -2 4 5 14 16 24 11 10 20 13 20 8 0 -6 -7 -14
-16 -17 -9 -4 -14 -9 -11 -12 3 -4 -4 -23 -17 -43 -12 -20 -37 -63 -55 -96
-28 -53 -29 -56 -7 -30 14 17 25 35 26 41 0 5 16 25 35 44 19 19 35 40 35 48
0 7 3 11 8 8 4 -2 16 15 27 37 11 23 23 44 26 47 3 3 28 39 54 80 26 41 51 77
55 80 3 3 28 42 55 87 27 46 51 81 53 78 3 -2 -10 -26 -27 -53 -17 -27 -31
-54 -31 -60 0 -5 -3 -12 -7 -14 -5 -1 -19 -24 -33 -50 -13 -27 -28 -48 -32
-48 -5 0 -8 -8 -8 -18 0 -10 -11 -29 -25 -42 -14 -13 -23 -26 -20 -28 3 -3 -5
-17 -17 -30 -13 -14 -17 -22 -9 -17 8 5 12 4 9 -1 -3 -5 -29 -46 -57 -92 -28
-46 -51 -90 -51 -98 0 -8 -4 -13 -9 -10 -9 6 -36 -43 -32 -61 1 -7 -3 -13 -9
-13 -5 0 -10 -7 -10 -15 0 -8 -4 -15 -8 -15 -16 0 -44 -72 -33 -83 8 -8 11 -7
11 3 0 13 98 166 124 193 6 7 21 33 33 60 13 26 27 47 33 47 5 0 10 7 10 16 0
8 4 13 8 10 5 -3 15 7 23 22 7 15 24 40 36 55 13 16 23 35 23 43 0 8 3 14 8
14 4 0 31 38 61 85 29 47 56 85 58 85 3 0 -1 -10 -9 -22 -8 -13 -32 -54 -53
-93 -21 -38 -55 -96 -76 -127 -20 -31 -40 -66 -44 -78 -3 -11 -10 -18 -15 -15
-4 3 -11 -2 -14 -11 -4 -10 -2 -13 6 -8 12 7 -4 -20 -69 -123 -18 -29 -30 -53
-27 -53 2 0 -6 -12 -20 -26 -13 -15 -23 -34 -21 -43 1 -9 -4 -20 -11 -26 -14
-12 -54 -81 -54 -95 0 -20 15 -9 28 19 7 16 23 41 36 56 14 16 30 40 38 54 7
14 19 30 25 34 7 4 13 15 13 22 0 8 4 15 8 15 5 0 16 18 26 40 10 22 23 46 29
53 20 21 52 72 49 80 -1 4 2 7 8 7 15 0 51 43 46 56 -3 7 6 24 20 39 31 34 97
136 97 152 0 6 7 8 16 5 14 -5 14 -4 1 14 -8 10 -10 16 -6 12 12 -11 50 46 72
109 10 28 22 49 28 46 5 -4 7 3 3 16 -6 26 1 51 14 51 13 0 11 -57 -2 -65 -5
-4 -8 -12 -6 -18 4 -12 -62 -144 -110 -220 -14 -22 -35 -59 -49 -83 -82 -148
-78 -140 -55 -120 11 11 21 25 21 32 0 7 6 17 13 21 6 4 19 22 27 38 8 17 22
35 30 42 8 7 12 13 8 13 -4 0 0 9 10 20 64 75 149 273 144 335 -2 18 -7 40
-14 50 -3 6 -8 31 -12 56 -5 32 -15 54 -34 71 -38 35 -83 64 -112 73 -14 4
-27 11 -30 16 -3 4 -19 10 -35 13 -17 3 -45 10 -62 15 -18 5 -33 7 -33 3 0 -4
-4 -1 -8 5 -4 7 -34 14 -67 15 -33 2 -63 7 -67 13 -6 9 -511 19 -519 10z m179
-40 c-8 -9 -203 -24 -353 -29 -22 0 -44 -5 -48 -11 -5 -6 -7 -4 -5 4 3 9 20
15 49 16 60 3 61 3 53 18 -5 8 -3 8 9 -2 11 -9 31 -11 59 -7 24 3 80 6 125 7
45 1 87 5 94 10 14 8 27 3 17 -6z m96 0 c2 -7 -2 -12 -10 -12 -8 0 -14 4 -14
9 0 4 -5 8 -11 8 -5 0 -7 -5 -4 -10 7 -12 -31 -8 -42 5 -5 4 -3 6 2 2 6 -3 17
-2 25 3 18 11 48 8 54 -5z m116 -1 c0 -14 -67 -16 -76 -3 -3 5 -9 7 -14 4 -5
-3 -11 -2 -13 2 -3 5 19 8 49 8 34 0 54 -4 54 -11z m104 -1 c39 -2 73 -8 77
-14 3 -6 18 -7 32 -3 18 4 27 2 27 -6 0 -6 4 -9 9 -6 15 10 69 -5 75 -21 3 -8
2 -12 -2 -10 -22 12 -50 20 -77 22 -16 1 -52 5 -80 10 -27 4 -55 8 -62 8 -7 0
-10 4 -7 9 3 4 0 8 -5 8 -6 0 -11 -5 -11 -10 0 -7 -6 -8 -16 -2 -9 5 -24 7
-34 5 -10 -3 -17 1 -17 11 0 8 5 12 11 9 5 -4 42 -8 80 -10z m-759 -43 c-16
-4 -43 -8 -60 -8 -29 1 -29 1 5 8 19 4 46 7 60 8 22 0 22 -1 -5 -8z m-115 -20
c-14 -4 -34 -8 -45 -8 -16 0 -15 2 5 8 14 4 34 8 45 8 16 0 15 -2 -5 -8z
m1193 -15 c20 -11 37 -26 37 -33 0 -11 -3 -11 -14 1 -8 8 -36 20 -62 27 -37
11 -43 15 -28 21 22 8 18 9 67 -16z m-1266 -1 c-3 -3 -12 -4 -19 -1 -8 3 -5 6
6 6 11 1 17 -2 13 -5z m1387 -98 c9 -16 14 -31 12 -34 -3 -3 -8 3 -12 12 -3 9
-10 13 -15 10 -5 -3 -9 2 -9 10 0 8 -10 23 -22 33 -13 10 -24 24 -26 32 -4 20
52 -30 72 -63z m-1549 54 c-3 -5 -12 -10 -18 -10 -7 0 -6 4 3 10 19 12 23 12
15 0z m-100 -40 c-3 -5 -12 -10 -18 -10 -7 0 -6 4 3 10 19 12 23 12 15 0z
m-85 -24 c0 -2 -7 -9 -15 -16 -13 -11 -14 -10 -9 4 5 14 24 23 24 12z m1730
-66 c0 -5 -2 -10 -4 -10 -3 0 -8 5 -11 10 -3 6 -1 10 4 10 6 0 11 -4 11 -10z
m-1855 -10 c-3 -5 -12 -10 -18 -10 -7 0 -6 4 3 10 19 12 23 12 15 0z m995 1
c0 -13 -21 -19 -44 -13 -20 5 -20 5 0 13 27 11 44 11 44 0z m50 5 c0 -9 -30
-14 -35 -6 -4 6 3 10 14 10 12 0 21 -2 21 -4z m110 -3 c0 -5 -17 -9 -38 -10
-32 -1 -33 0 -12 7 33 11 50 12 50 3z m100 -3 c0 -5 -10 -10 -22 -10 -19 0
-20 2 -8 10 19 13 30 13 30 0z m-331 -5 c-3 -3 -35 -7 -70 -9 -35 -2 -55 -1
-45 3 24 9 123 14 115 6z m497 -6 c5 -8 -137 -1 -145 7 -3 3 27 4 67 3 41 -2
75 -6 78 -10z m251 -27 c10 -7 10 -12 -1 -27 -12 -16 -16 -17 -30 -6 -12 10
-14 17 -5 27 13 16 19 17 36 6z m-1787 -46 c0 -2 -8 -10 -17 -17 -16 -13 -17
-12 -4 4 13 16 21 21 21 13z m1265 -16 c32 0 56 -2 53 -6 -11 -10 -101 -12
-120 -2 -11 5 -18 5 -18 0 0 -5 -36 -9 -79 -8 -79 1 -105 11 -35 14 20 1 39 3
41 5 2 2 25 2 51 0 26 -3 74 -4 107 -3z m-379 -9 c-4 -5 0 -12 6 -14 7 -3 -3
-6 -22 -8 -48 -3 -54 -4 -65 -10 -5 -3 -23 -5 -40 -6 -20 0 -23 1 -7 4 12 2
22 8 22 13 0 4 11 7 25 5 14 -1 25 1 25 5 0 5 8 6 19 3 10 -3 22 0 25 6 4 6 9
11 12 11 3 0 3 -4 0 -9z m115 -11 c-8 -4 -21 -5 -30 -2 -12 5 -10 8 9 12 29 8
40 3 21 -10z m529 7 c0 -5 4 -6 10 -2 12 8 60 -5 60 -16 0 -5 -36 -8 -80 -6
-44 1 -80 5 -80 9 0 4 -7 5 -15 2 -8 -4 -15 -2 -15 4 0 5 -13 9 -30 8 -16 0
-30 -3 -30 -7 0 -3 -7 -6 -16 -6 -15 0 -15 1 -1 12 18 13 197 15 197 2z m-580
-7 c0 -5 -4 -10 -10 -10 -5 0 -10 5 -10 10 0 6 5 10 10 10 6 0 10 -4 10 -10z
m-230 -34 c0 -2 -9 -6 -20 -9 -11 -3 -18 -1 -14 4 5 9 34 13 34 5z m888 -65
c-12 -22 -26 -41 -31 -41 -6 0 -4 8 4 18 8 9 21 29 29 44 7 16 15 26 17 24 2
-2 -6 -22 -19 -45z m65 -22 c-8 -8 -13 -7 -18 2 -5 8 -4 10 3 5 7 -4 12 -2 12
5 0 7 3 9 7 6 4 -4 2 -12 -4 -18z m-29 -64 c-4 -8 -11 -15 -16 -15 -6 0 -5 6
2 15 7 8 14 15 16 15 2 0 1 -7 -2 -15z m-94 -19 c0 -3 -4 -8 -10 -11 -5 -3
-10 -1 -10 4 0 6 5 11 10 11 6 0 10 -2 10 -4z m70 -21 c-7 -9 -15 -13 -19 -10
-3 3 1 10 9 15 21 14 24 12 10 -5z m-100 -5 c0 -5 -2 -10 -4 -10 -3 0 -8 5
-11 10 -3 6 -1 10 4 10 6 0 11 -4 11 -10z m-1253 -62 c-3 -8 -6 -5 -6 6 -1 11
2 17 5 13 3 -3 4 -12 1 -19z m-464 -208 c-3 -12 -8 -19 -11 -16 -5 6 5 36 12
36 2 0 2 -9 -1 -20z m-206 -642 c-3 -8 -6 -5 -6 6 -1 11 2 17 5 13 3 -3 4 -12
1 -19z m1119 -110 c4 -7 4 -10 0 -6 -4 3 -21 2 -37 -2 -16 -5 -29 -5 -29 0 0
5 12 11 28 13 15 2 28 5 29 6 1 0 5 -5 9 -11z m71 6 c-3 -3 -12 -4 -19 -1 -8
3 -5 6 6 6 11 1 17 -2 13 -5z m454 -317 c-10 -9 -11 -8 -5 6 3 10 9 15 12 12
3 -3 0 -11 -7 -18z"/>
<path d="M3310 3581 c-12 -24 -13 -34 -1 -27 9 6 22 46 15 46 -2 0 -8 -9 -14
-19z"/>
<path d="M3592 3475 c-6 -14 -8 -25 -4 -25 4 0 12 11 19 25 6 14 8 25 4 25 -4
0 -13 -11 -19 -25z"/>
<path d="M3556 3414 c-10 -14 -16 -29 -14 -34 2 -4 11 7 20 26 21 40 17 45 -6
8z"/>
<path d="M3456 3253 c-6 -14 -5 -15 5 -6 7 7 10 15 7 18 -3 3 -9 -2 -12 -12z"/>
<path d="M3266 3193 c-6 -14 -5 -15 5 -6 7 7 10 15 7 18 -3 3 -9 -2 -12 -12z"/>
<path d="M3146 3063 c-6 -14 -5 -15 5 -6 7 7 10 15 7 18 -3 3 -9 -2 -12 -12z"/>
<path d="M3117 3022 c-19 -20 -23 -37 -7 -27 10 6 33 45 27 45 -2 0 -11 -8
-20 -18z"/>
<path d="M3181 2981 c-1 -8 -9 -24 -20 -35 -23 -26 -55 -76 -48 -76 11 0 78
102 73 113 -3 8 -5 7 -5 -2z"/>
<path d="M3080 2969 c0 -5 5 -7 10 -4 6 3 10 8 10 11 0 2 -4 4 -10 4 -5 0 -10
-5 -10 -11z"/>
</g>
</svg>
